#!OML:ASF E:/inclinewalkrobotboard/Project1/Captureday1/Session1/subject1.ASF
:FULLY-SPECIFIED
:DEGREES
376
root 0 0 0 -2.169348460548405 0.6779835268975445 0.394372367147255
lowerback 8.235071213068894 -1.50009902332047 -2.506376165783455
upperback -0.11022620459624542 -2.133565202808752 2.215584876197201
thorax -4.60000441031231 -0.9734328051413337 4.039727106959149
lowerneck -17.231038028530403 -2.7179247803024813 -2.841492648736654
upperneck 20.018760221293093 -3.1581968336211155 0.6574771638391586
head 9.07763680196214 -1.6314448598168385 0.26579396693392565
rclavicle 1.4418622887778767E-15 6.87155801064331E-16
rhumerus -34.00792488170281 -27.643640272251446 -79.1727360979717
rradius 18.610176241169853
rwrist 9.581725872415536
rhand -18.90834290518385 24.223886452990023
rfingers 7.125020000000013
rthumb 7.4164031080888835 -5.7415945045756125
lclavicle 5.010085244719499E-15 1.8059373093127677E-15
lhumerus -27.202160055592266 -4.161313000361297 82.90415330527054
lradius 31.157623640869247
lwrist 8.145082929070968
lhand -28.31473807346496 25.28633232679436
lfingers 7.125020000000028
lthumb -1.7027314244925709 55.2722640402986
rfemur -22.581368982971085 5.799280339022061 24.381670941106712
rtibia 30.067117447065336
rfoot -9.808746478688242 -9.24796534133315
rtoes 2.0078495947973227
lfemur 11.27287238389739 -5.113666119233085 -24.75483872772006
ltibia 29.938955991921016
lfoot -8.567309922115443 -5.763628348326343
ltoes -9.699376618631003
377
root 0 0 0 -3.012829341430899 0.2807072545025875 -0.6207242958987496
lowerback 10.16352042232278 -1.5770870422944707 -1.4186664285357902
upperback 0.41892213406675927 -2.08347291555288 2.52837149972897
thorax -5.145587472133223 -0.9744347752470188 3.7376449545139274
lowerneck -17.55107632675724 -2.764745513387416 -2.4993728041718044
upperneck 17.44277264590988 -3.0489777704382286 -0.13391025424425274
head 8.222822811817448 -1.66288883351833 -0.03125073395798328
rclavicle 4.4227559708311607E-16 2.721754010902363E-16
rhumerus -34.084740055094315 -27.482091800230112 -79.24174305743131
rradius 18.11739012236437
rwrist 9.69471946684218
rhand -18.672479135302677 24.245930883997644
rfingers 7.125020000000014
rthumb 7.642496484330471 -5.686803771847977
lclavicle 2.824624965538819E-15 1.2099159172241995E-15
lhumerus -27.71957549758468 -3.750946346176007 83.29556414421546
lradius 30.561187376763975
lwrist 7.908793282487297
lhand -28.222024818025282 25.471542507987305
lfingers 7.125020000000032
lthumb -1.606803603156834 55.470313273140256
rfemur -17.30398079142545 6.361136834359506 27.41631278141203
rtibia 31.87933551582441
rfoot -10.449331212300232 -7.7768125940161905
rtoes 4.36170320049008
lfemur 3.0636463571972667 -3.1886223314154343 -21.323319312780953
ltibia 44.58654523197788
lfoot 1.2641061383101437 -11.518467831654975
ltoes -3.292521701899286
378
root 0 0 0 -3.526467401604006 -0.2050300691553728 -1.7190685696468913
lowerback 11.017589379243915 -1.4603353653385662 -0.2960287593387543
upperback 0.5403717586733722 -1.7834324396938819 2.708254451734527
thorax -5.524732507484986 -0.8525795759507053 3.246500482847302
lowerneck -18.012805551067437 -2.7413414317289546 -2.261772250054289
upperneck 16.100903227443172 -2.9999221038243973 -0.3914225028514444
head 7.8920490556851615 -1.652078096564706 -0.14310189463026846
rclavicle -2.7944752092172607E-16 -1.1841852827649035E-15
rhumerus -33.67921384083664 -27.082980997903476 -79.26349903552139
rradius 17.806081876435357
rwrist 10.26613099312803
rhand -18.46576603043609 24.636464470142347
rfingers 7.125020000000015
rthumb 7.838756715186783 -5.279713235646657
lclavicle 4.137467485533747E-16 -6.278457030469724E-16
lhumerus -28.195147069773455 -3.1826129076501575 83.93088525732557
lradius 29.541111672050985
lwrist 7.477546333446577
lhand -28.148277909902667 25.70274628283412
lfingers 7.1250200000000365
lthumb -1.526354205961221 55.71602566913078
rfemur -9.430485794588323 7.399199633910786 32.45104349193212
rtibia 35.25299473659843
rfoot -11.465754382681638 -5.921306003258392
rtoes 7.787994134160388
lfemur -6.56274753227882 0.6452719940279383 -18.30417513196182
ltibia 53.89265845992666
lfoot 7.733562134634191 -15.267839102305803
ltoes -2.0203468958647512
379
root 0 0 0 -4.037875861877482 -1.4620970913203917 -3.4188396095464824
lowerback 10.252075151698213 -0.8323858776803611 1.3219802465617951
upperback 0.013695713762508194 -0.7548000575417864 2.788089427018525
thorax -5.674860209871749 -0.3773078354203717 2.2933187615749806
lowerneck -18.485798122723676 -2.72261111895871 -1.9277645549025357
upperneck 18.18833100207961 -3.208200553565526 -0.14384478556024805
head 8.83928219999207 -1.6518256329676613 -0.15713668104233058
rclavicle -6.818793451311145E-16 -2.3286733541658177E-15
rhumerus -33.34291492919105 -26.02657529870757 -79.6040546339425
rradius 17.749677113052726
rwrist 10.796802007241915
rhand -18.230464608583183 25.086568931674208
rfingers 7.125020000000016
rthumb 8.06356740079554 -4.784873791273398
lclavicle -2.080486031698282E-15 -1.9228363709951837E-15
lhumerus -28.679148461365028 -2.1531221523192197 84.59998102450315
lradius 27.83801387851618
lwrist 6.6934669236058895
lhand -28.134274542889028 25.96223557455503
lfingers 7.125020000000043
lthumb -1.5077101580011156 55.991533054042605
rfemur -6.3691608174543815 7.719089456476583 34.47624779438318
rtibia 36.5985103501752
rfoot -12.668630403944785 -5.36901004900656
rtoes 9.216916950307205
lfemur -12.362015653687463 3.1600680345545253 -17.263139346269803
ltibia 57.791173155889524
lfoot 7.042264002942215 -14.784326913401365
ltoes -2.831682154842575
380
root 0 0 0 -3.8854693573034864 -3.6094936336707564 -6.5009610137384914
lowerback 7.9168749699522065 0.6124324009933025 4.232670712623139
upperback -0.7796805440327872 1.5333379177332627 2.938381924890691
thorax -5.13162151127587 0.68865276601008 0.5342216230687655
lowerneck -18.226412967787347 -3.0886288651558 -1.6800144991592265
upperneck 23.268072918725828 -4.030157579130826 0.5109894484403141
head 10.572580105272504 -1.8944408646265285 -0.12604998493075564
rclavicle -1.5536121537678458E-15 -1.1153344342757503E-15
rhumerus -33.37067169690613 -23.74922356602631 -80.63092318731391
rradius 18.09293996286958
rwrist 10.473944369371683
rhand -18.01549216290692 25.606624457025006
rfingers 7.125020000000018
rthumb 8.271228506954905 -4.2062599241303715
lclavicle -4.185082752337033E-15 -7.506039716344978E-16
lhumerus -29.39550581150899 -1.160408591721944 85.10222507404221
lradius 26.426964293785694
lwrist 6.101652049144566
lhand -28.08356253923649 26.1784152733654
lfingers 7.125020000000045
lthumb -1.4649028594256723 56.20705979686177
rfemur -4.568604147222299 7.875430716254741 34.99598807046332
rtibia 34.87930013080617
rfoot -14.762169219010069 -5.520166012032384
rtoes 9.000464849657693
lfemur -21.71778043404998 3.50361233164801 -13.277181434603355
ltibia 57.51746340892957
lfoot 3.601837435211525 -9.934009844733543
ltoes -6.708073818432577
381
root 0 0 0 -3.336592432425247 -4.985988136984674 -7.714103181508101
lowerback 9.13853386848557 1.5315542099464394 5.885023991022276
upperback -0.22984784178786546 2.9517501807784132 2.906714749863755
thorax -5.1842701743351896 1.3549521711108192 -0.6446584235513285
lowerneck -17.760712129957433 -3.517102667035642 -1.9559604944834033
upperneck 22.483288254484386 -4.525687758112921 0.7798257735184928
head 10.207937515914477 -2.1659871682645844 -0.04506567529965416
rclavicle -2.6665496725660028E-15 1.4326462604167635E-15
rhumerus -33.520174744181595 -20.51912554648741 -81.92117043646297
rradius 18.854474300850704
rwrist 8.584971300931016
rhand -17.930109152585942 26.33203848725706
rfingers 7.125020000000019
rthumb 8.353955090005904 -3.42594780721938
lclavicle -5.7856674977388285E-15 1.499832256229462E-15
lhumerus -30.305168962251653 -0.5305858009488456 85.62134393066152
lradius 25.64177572533652
lwrist 5.841077088181473
lhand -27.92353722317543 26.287878766759384
lfingers 7.125020000000046
lthumb -1.3155553621790919 56.31852186978665
rfemur -2.242471935188851 8.17304932682588 35.02469609143527
rtibia 31.112098908277826
rfoot -16.912199951199263 -5.793368932811105
rtoes 8.091335936617842
lfemur -28.660941695945258 2.913423907645866 -10.497936724130675
ltibia 54.98307351252535
lfoot 0.8870454212892493 -5.7145640318085675
ltoes -8.641662577122801
